<svg width="80" height="80" viewBox="0 0 80 80" fill="none" xmlns="http://www.w3.org/2000/svg">
                        <path
                            d="M40 0C17.9444 0 0 17.9444 0 40C0 62.0556 17.9444 80 40 80C62.0556 80 80 62.0556 80 40C80 17.9444 62.0556 0 40 0Z"
                            fill="#303C42"
                        />
                        <path
                            d="M40 3.3335C60.2181 3.3335 76.6667 19.7821 76.6667 40.0002C76.6667 48.0483 74.0295 55.4749 69.6165 61.5285C69.2311 61.2777 68.8501 61.049 68.4636 60.8497C61.7839 57.4205 51.4225 53.3335 40 53.3335C28.5775 53.3335 18.2161 57.4205 11.5348 60.8515C11.1493 61.0499 10.7689 61.278 10.3836 61.5285C5.9706 55.4746 3.33325 48.0483 3.33325 40.0002C3.33325 19.7821 19.7818 3.3335 40 3.3335Z"
                            fill="#E6E6E6"
                        />
                        <path
                            d="M40 76.6665C29.0373 76.6665 19.21 71.8059 12.4851 64.1551C12.6768 64.039 12.8701 63.9128 13.0598 63.8149C19.4123 60.5532 29.2431 56.6665 40 56.6665C50.7568 56.6665 60.5875 60.5532 66.9384 63.8134C67.129 63.9118 67.3228 64.0382 67.515 64.1549C60.79 71.8056 50.9626 76.6665 40 76.6665Z"
                            fill="#54B825"
                        />
                        <path
                            d="M40 50C51.0457 50 60 41.0457 60 30C60 18.9543 51.0457 10 40 10C28.9543 10 20 18.9543 20 30C20 41.0457 28.9543 50 40 50Z"
                            fill="#303C42"
                        />
                        <path
                            d="M55.1141 73.3732C59.8745 71.1979 64.098 68.0423 67.515 64.1549C67.3228 64.0382 67.1291 63.9118 66.9384 63.8134C60.5875 60.5532 50.7567 56.6665 40 56.6665C39.485 56.6665 38.9842 56.7156 38.4738 56.7328L55.1141 73.3732Z"
                            fill="url(#paint0_linear_17:14)"
                        />
                        <path
                            d="M40 46.6669C49.2048 46.6669 56.6667 39.205 56.6667 30.0002C56.6667 20.7954 49.2048 13.3335 40 13.3335C30.7952 13.3335 23.3333 20.7954 23.3333 30.0002C23.3333 39.205 30.7952 46.6669 40 46.6669Z"
                            fill="#54B825"
                        />
                        <path
                            opacity="0.1"
                            d="M48.935 15.9785C49.5875 17.7613 50 19.6605 50 21.6666C50 30.8565 42.5235 38.3334 33.3333 38.3334C30.04 38.3334 26.9863 37.3429 24.3983 35.688C26.7352 42.0726 32.8158 46.6666 39.9999 46.6666C49.1899 46.6666 56.6666 39.1898 56.6666 29.9999C56.6668 24.103 53.569 18.942 48.935 15.9785Z"
                            fill="black"
                        />
                        <path
                            d="M40 0C17.9444 0 0 17.9444 0 40C0 62.0556 17.9444 80 40 80C62.0556 80 80 62.0556 80 40C80 17.9444 62.0556 0 40 0Z"
                            fill="url(#paint1_linear_17:14)"
                        />
                        <defs>
                            <linearGradient
                                id="paint0_linear_17:14"
                                x1="43.8799"
                                y1="51.331"
                                x2="62.1632"
                                y2="69.6177"
                                gradientUnits="userSpaceOnUse"
                            >
                                <stop stop-color="#54B825" stop-opacity="0.1" />
                                <stop offset="1" stop-opacity="0" />
                            </linearGradient>
                            <linearGradient
                                id="paint1_linear_17:14"
                                x1="3.74933"
                                y1="23.1013"
                                x2="76.2512"
                                y2="56.9052"
                                gradientUnits="userSpaceOnUse"
                            >
                                <stop stop-color="white" stop-opacity="0.2" />
                                <stop offset="1" stop-color="white" stop-opacity="0" />
                            </linearGradient>
                        </defs>
                    </svg>